# xmcd CD database file
#
# Track frame offsets:
#	183
#	11335
#	21695
#	30263
#	42088
#	52810
#	64610
#	77685
#	88985
#	100260
#	110693
#	123460
#	134765
#	145445
#	155268
#	164815
#	174223
#	184773
#	195093
#	206525
#
# Disc length: 2898 seconds
#
# Revision: 0
# Processed by: cddbd v1.4PL0 Copyright (c) Steve Scherf et al.
# Submitted via: CDex 1.50Beta7
#
DISCID=0d0b5014
DTITLE=Patsy Cline - Through The Eyes Of Patsy Cline - An Anthology Disc Two
DYEAR=1900
DGENRE=Country
TTITLE0=Stop The World (and let me get off)
TTITLE1=Walking Dream
TTITLE2=Come On In (and make yourself at home)
TTITLE3=Let The Teardrops Fall
TTITLE4=I Can See An Angel Walkin'
TTITLE5=Never No More
TTITLE6=If I Could See The World (through the eyes of a child)
TTITLE7=Just Out Of Reach
TTITLE8=I Go To Church On Sunday (dear god)
TTITLE9=He Will Do For You What He Has Done For Me
TTITLE10=Yes, I Understand
TTITLE11=Cry Not For Me
TTITLE12=Got A Lot Of Rhythm In My Soul
TTITLE13=I'm Blue Again
TTITLE14=I'm Moving Along
TTITLE15=Love, Love, Love Me Honey Do
TTITLE16=Lovesick Blues
TTITLE17=How Can I Face Tomorrow
TTITLE18=Crazy Dreams
TTITLE19=There He Goes
EXTD=
EXTT0=
EXTT1=
EXTT2=
EXTT3=
EXTT4=
EXTT5=
EXTT6=
EXTT7=
EXTT8=
EXTT9=
EXTT10=
EXTT11=
EXTT12=
EXTT13=
EXTT14=
EXTT15=
EXTT16=
EXTT17=
EXTT18=
EXTT19=
PLAYORDER=
